<?xml version="1.0" encoding="utf-8"?>
<!-- Generator: Adobe Illustrator 16.0.0, SVG Export Plug-In . SVG Version: 6.00 Build 0)  -->
<!DOCTYPE svg PUBLIC "-//W3C//DTD SVG 1.1//EN" "http://www.w3.org/Graphics/SVG/1.1/DTD/svg11.dtd">
<svg version="1.1" id="Layer_1" xmlns="http://www.w3.org/2000/svg" xmlns:xlink="http://www.w3.org/1999/xlink" x="0px" y="0px"
	 width="166.5px" height="29.324px" viewBox="0 0 166.5 29.324" style="enable-background:new 0 0 166.5 29.324;"
	 xml:space="preserve">
<path style="fill-rule:evenodd;clip-rule:evenodd;" d="M166.5,0C9.667,0,156.833,0,0,0v4.821c0,0,4.604-0.003,6.418-0.003
	c0.527,1.568,0.936,3.061,1.522,4.48c2.255,5.453,6.222,8.677,12.25,8.788c7.732,0.142,12.737,3.699,14.78,11.237
	c133.537,0-36.926,0,96.611,0c2.042-7.534,7.043-11.095,14.772-11.237c6.024-0.109,9.994-3.326,12.252-8.775
	c0.588-1.419,0.996-2.912,1.527-4.492c1.736,0,6.366,0.002,6.366,0.002V0z"/>
</svg>
